<svg xmlns="http://www.w3.org/2000/svg" xmlns:svg="http://www.w3.org/2000/svg" id="svg3774" width="55" height="55" x="0" y="0" enable-background="new 0 0 55 55" version="1.1" viewBox="0 0 55 55" xml:space="preserve"><metadata id="metadata3780"/><rect id="rect361" width="36.533" height="45.526" x="11.773" y="5.458" fill="#fff" stroke="#666" stroke-dasharray="none" stroke-miterlimit="4" stroke-width="2.225" ry="2.142"/><ellipse id="path4662" cx="33.056" cy="15.45" fill="#fff" stroke="#666" stroke-dasharray="none" stroke-linejoin="round" stroke-miterlimit="4" stroke-width="1.408" opacity="1" rx="6.705" ry="6.52"/><path id="path4666" fill="none" stroke="#666" stroke-dasharray="none" stroke-linecap="butt" stroke-linejoin="miter" stroke-miterlimit="4" stroke-opacity="1" stroke-width="1.344" d="m 36.939888,9.4040514 -0.655045,0.9604446 c 0,0 -0.09397,0.157636 -3.150841,5.199973 l 6.435888,0.789624"/><path id="path1198" fill="none" stroke="#666" stroke-dasharray="none" stroke-linecap="butt" stroke-linejoin="miter" stroke-miterlimit="4" stroke-opacity="1" stroke-width="2.223" d="m 17.954602,4.5566516 c 0.327219,46.2630164 0.16361,46.2630164 0.16361,46.2630164 l 0.490826,0.338922"/><rect id="rect1370" width=".354" height="16.582" x="23.423" y="30.198" fill="#fff" stroke="#666" stroke-dasharray="none" stroke-miterlimit="4" stroke-width="2.242" ry=".143"/><rect id="rect1370-8" width=".354" height="13.234" x="29.08" y="33.634" fill="#fff" stroke="#666" stroke-dasharray="none" stroke-miterlimit="4" stroke-width="2.152" ry=".114"/><rect id="rect1370-5" width=".397" height="9.759" x="34.715" y="37.131" fill="#fff" stroke="#666" stroke-dasharray="none" stroke-miterlimit="4" stroke-width="2.04" ry=".084"/><rect id="rect1370-58" width=".354" height="6.472" x="40.57" y="40.485" fill="#fff" stroke="#666" stroke-dasharray="none" stroke-miterlimit="4" stroke-width="2.04" ry=".056"/><rect id="rect1423" width="1.535" height=".962" x="24.284" y="25.221" fill="#666" stroke="#666" stroke-dasharray="none" stroke-linecap="butt" stroke-miterlimit="4" stroke-width="2.232" opacity="1" ry=".031"/><rect id="rect1423-8" width="1.535" height=".962" x="29.764" y="25.268" fill="#666" stroke="#666" stroke-dasharray="none" stroke-linecap="butt" stroke-miterlimit="4" stroke-width="2.232" opacity="1" ry=".031"/><rect id="rect1423-6" width="1.535" height=".962" x="35.05" y="25.314" fill="#666" stroke="#666" stroke-dasharray="none" stroke-linecap="butt" stroke-miterlimit="4" stroke-width="2.232" opacity="1" ry=".031"/><rect id="rect1423-3" width="1.535" height=".962" x="40.374" y="25.345" fill="#666" stroke="#666" stroke-dasharray="none" stroke-linecap="butt" stroke-miterlimit="4" stroke-width="2.232" opacity="1" ry=".031"/></svg>